<!DOCTYPE svg PUBLIC "-//W3C//DTD SVG 1.1//EN" "http://www.w3.org/Graphics/SVG/1.1/DTD/svg11.dtd">
<!-- Uploaded to: SVG Repo, www.svgrepo.com, Transformed by: SVG Repo Mixer Tools -->
<svg version="1.1" id="Capa_1" xmlns="http://www.w3.org/2000/svg" xmlns:xlink="http://www.w3.org/1999/xlink" viewBox="-70.12 -70.12 552.72 552.72" xml:space="preserve" width="800px" height="800px" fill="#000000" stroke="#000000" stroke-width="0.0041248000000000005">
<g id="SVGRepo_bgCarrier" stroke-width="0"/>
<g id="SVGRepo_tracerCarrier" stroke-linecap="round" stroke-linejoin="round"/>
<g id="SVGRepo_iconCarrier"> <g> <path d="M412.48,357.9v33.18c0,4.14-3.36,7.5-7.5,7.5H7.5c-4.15,0-7.5-3.36-7.5-7.5V357.9c0-4.14,3.35-7.5,7.5-7.5h63.53v-12H7.5 c-4.15,0-7.5-3.36-7.5-7.5V227.4c0-4.14,3.35-7.5,7.5-7.5h103.49V52.43c-7.32-2.97-12.5-10.15-12.5-18.53c0-11.02,8.97-20,20-20 s20,8.98,20,20c0,8.38-5.18,15.56-12.5,18.53V219.9h278.99c4.14,0,7.5,3.36,7.5,7.5v103.5c0,4.14-3.36,7.5-7.5,7.5h-63.53v12h63.53 C409.12,350.4,412.48,353.76,412.48,357.9z M397.48,383.58V365.4H15v18.18H397.48z M397.48,323.4v-88.5h-91.64v69 c0,4.14-3.36,7.5-7.5,7.5h-79.21c-4.14,0-7.5-3.36-7.5-7.5v-69H15v88.5H397.48z M326.45,350.4v-12H86.03v12H326.45z M290.84,296.4 v-61.5h-64.21v61.5H290.84z M123.49,33.9c0-2.75-2.24-5-5-5c-2.76,0-5,2.25-5,5c0,2.76,2.24,5,5,5 C121.25,38.9,123.49,36.66,123.49,33.9z"/> <rect x="15" y="365.4" style="fill:#0e85a0;" width="382.48" height="18.18"/> <path style="fill:#0e85a0;" d="M397.48,234.9v88.5H15v-88.5h196.63v69c0,4.14,3.36,7.5,7.5,7.5h79.21c4.14,0,7.5-3.36,7.5-7.5v-69 H397.48z"/> <path d="M258.73,245.65c11.03,0,20,8.97,20,20s-8.97,20-20,20c-11.02,0-20-8.97-20-20S247.71,245.65,258.73,245.65z M263.73,265.65 c0-2.75-2.24-5-5-5c-2.75,0-5,2.25-5,5c0,2.76,2.25,5,5,5C261.49,270.65,263.73,268.41,263.73,265.65z"/> <path style="fill:#F48C6C;" d="M118.49,28.9c2.76,0,5,2.25,5,5c0,2.76-2.24,5-5,5c-2.76,0-5-2.24-5-5 C113.49,31.15,115.73,28.9,118.49,28.9z"/> </g> </g>
</svg>